<svg xmlns="http://www.w3.org/2000/svg" width="25" height="24" viewBox="0 0 25 24" fill="none">
  <path d="M13.6073 2.76376C13.256 2.4905 13.0803 2.35388 12.8863 2.30136C12.7152 2.25502 12.5348 2.25502 12.3637 2.30136C12.1697 2.35388 11.994 2.4905 11.6427 2.76375L4.86039 8.03888C4.40702 8.3915 4.18034 8.56781 4.01703 8.78861C3.87237 8.9842 3.7646 9.20454 3.69903 9.43881C3.625 9.70327 3.625 9.99045 3.625 10.5648V17.7997C3.625 18.9198 3.625 19.4799 3.84299 19.9077C4.03473 20.284 4.34069 20.59 4.71702 20.7818C5.14484 20.9997 5.7049 20.9997 6.825 20.9997H8.825C9.10503 20.9997 9.24504 20.9997 9.352 20.9452C9.44608 20.8973 9.52257 20.8208 9.5705 20.7267C9.625 20.6198 9.625 20.4798 9.625 20.1997V13.5997C9.625 13.0397 9.625 12.7597 9.73399 12.5457C9.82987 12.3576 9.98285 12.2046 10.171 12.1087C10.3849 11.9997 10.6649 11.9997 11.225 11.9997H14.025C14.5851 11.9997 14.8651 11.9997 15.079 12.1087C15.2672 12.2046 15.4201 12.3576 15.516 12.5457C15.625 12.7597 15.625 13.0397 15.625 13.5997V20.1997C15.625 20.4798 15.625 20.6198 15.6795 20.7267C15.7274 20.8208 15.8039 20.8973 15.898 20.9452C16.005 20.9997 16.145 20.9997 16.425 20.9997H18.425C19.5451 20.9997 20.1052 20.9997 20.533 20.7818C20.9093 20.59 21.2153 20.284 21.407 19.9077C21.625 19.4799 21.625 18.9198 21.625 17.7997V10.5648C21.625 9.99045 21.625 9.70327 21.551 9.43881C21.4854 9.20454 21.3776 8.9842 21.233 8.78861C21.0697 8.56781 20.843 8.3915 20.3896 8.03888L13.6073 2.76376Z" stroke="black" stroke-width="1.5" stroke-linecap="round" stroke-linejoin="round"/>
</svg>