<svg xmlns="http://www.w3.org/2000/svg" width="25" height="24" viewBox="0 0 25 24" fill="none">
  <path d="M20.625 21C20.625 19.6044 20.625 18.9067 20.4528 18.3389C20.065 17.0605 19.0645 16.06 17.7861 15.6722C17.2183 15.5 16.5206 15.5 15.125 15.5H10.125C8.72944 15.5 8.03165 15.5 7.46386 15.6722C6.18545 16.06 5.18504 17.0605 4.79724 18.3389C4.625 18.9067 4.625 19.6044 4.625 21M17.125 7.5C17.125 9.98528 15.1103 12 12.625 12C10.1397 12 8.125 9.98528 8.125 7.5C8.125 5.01472 10.1397 3 12.625 3C15.1103 3 17.125 5.01472 17.125 7.5Z" stroke="black" stroke-width="1.5" stroke-linecap="round" stroke-linejoin="round"/>
</svg>