<svg width="22" height="23" viewBox="0 0 22 23" fill="none" xmlns="http://www.w3.org/2000/svg">
<path id="Icon" d="M5.04163 10.7288C4.97947 10.3282 4.94723 9.91786 4.94723 9.5C4.94723 5.08172 8.55251 1.5 12.9999 1.5C17.4472 1.5 21.0525 5.08172 21.0525 9.5C21.0525 10.4981 20.8685 11.4535 20.5324 12.3345C20.4626 12.5175 20.4277 12.609 20.4119 12.6804C20.3962 12.7512 20.3901 12.801 20.3884 12.8735C20.3867 12.9466 20.3966 13.0272 20.4164 13.1883L20.819 16.4585C20.8626 16.8125 20.8844 16.9895 20.8255 17.1182C20.7739 17.231 20.6823 17.3205 20.5684 17.3695C20.4383 17.4254 20.2619 17.3995 19.909 17.3478L16.7237 16.8809C16.5574 16.8565 16.4742 16.8443 16.3985 16.8448C16.3236 16.8452 16.2717 16.8507 16.1984 16.8661C16.1243 16.8817 16.0296 16.9172 15.8402 16.9881C14.9569 17.319 13.9997 17.5 12.9999 17.5C12.5817 17.5 12.1709 17.4683 11.7699 17.4073M6.57884 21.5C9.54374 21.5 11.9473 19.0376 11.9473 16C11.9473 12.9624 9.54374 10.5 6.57884 10.5C3.61395 10.5 1.21042 12.9624 1.21042 16C1.21042 16.6106 1.30754 17.1979 1.48681 17.7467C1.5626 17.9787 1.60049 18.0947 1.61292 18.1739C1.6259 18.2567 1.62818 18.3031 1.62335 18.3867C1.61871 18.4668 1.59868 18.5573 1.55861 18.7383L0.947266 21.5L3.94207 21.091C4.10553 21.0687 4.18726 21.0575 4.25863 21.058C4.33378 21.0585 4.37367 21.0626 4.44737 21.0773C4.51737 21.0912 4.62143 21.1279 4.82954 21.2014C5.37786 21.3949 5.96637 21.5 6.57884 21.5Z" stroke="black" stroke-width="1.5" stroke-linecap="round" stroke-linejoin="round"/>
</svg>
