<svg xmlns="http://www.w3.org/2000/svg" width="25" height="25" viewBox="0 0 25 25" fill="none">
  <path d="M14.0488 21.5H10.0488M18.0488 8.5C18.0488 6.9087 17.4167 5.38258 16.2915 4.25736C15.1663 3.13214 13.6401 2.5 12.0488 2.5C10.4575 2.5 8.93142 3.13214 7.80621 4.25736C6.68099 5.38258 6.04885 6.9087 6.04885 8.5C6.04885 11.5902 5.26932 13.706 4.39851 15.1054C3.66397 16.2859 3.29671 16.8761 3.31017 17.0408C3.32508 17.2231 3.36371 17.2926 3.51062 17.4016C3.64331 17.5 4.24144 17.5 5.4377 17.5H18.66C19.8563 17.5 20.4544 17.5 20.5871 17.4016C20.734 17.2926 20.7726 17.2231 20.7875 17.0408C20.801 16.8761 20.4337 16.2859 19.6992 15.1054C18.8284 13.706 18.0488 11.5902 18.0488 8.5Z" stroke="white" stroke-width="1.5" stroke-linecap="round" stroke-linejoin="round"/>
</svg>