<svg width="70" height="29" viewBox="0 0 70 29" fill="none" xmlns="http://www.w3.org/2000/svg">
<rect x="1" y="1.46875" width="68" height="27" rx="11.5" fill="white"/>
<rect x="1" y="1.46875" width="68" height="27" rx="11.5" stroke="#612FEF"/>
<path d="M23.5332 21.1309H22.2891V14.8418H20.8262V20.5293H19.5957V9.11328H20.8262V13.748H22.2891V8.88086H23.5332V21.1309ZM12.7871 17.6719C13.6576 17.1842 14.3115 16.4528 14.749 15.4775C15.1911 14.5023 15.4121 13.3835 15.4121 12.1211V11.3281H13.1152V10.2754H18.8027V11.3281H16.6699V12.1211C16.6699 12.873 16.7656 13.5817 16.957 14.2471C17.1484 14.9079 17.4378 15.498 17.8252 16.0176C18.2171 16.5326 18.7025 16.9382 19.2812 17.2344L18.5156 18.2324C17.9277 17.9134 17.4287 17.4805 17.0186 16.9336C16.6084 16.3822 16.2917 15.7464 16.0684 15.0264C15.8542 15.8512 15.5397 16.5736 15.125 17.1934C14.7148 17.8086 14.2044 18.2962 13.5938 18.6562L12.7871 17.6719ZM35.1953 15.2109H33.9102V8.88086H35.1953V15.2109ZM25.1875 14.2402C25.8118 14.0488 26.3564 13.7686 26.8213 13.3994C27.2861 13.0257 27.6439 12.5973 27.8945 12.1143C28.1497 11.6266 28.2773 11.1185 28.2773 10.5898H25.5293V9.53711H32.2832V10.5898H29.5898C29.5898 11.0866 29.7129 11.5628 29.959 12.0186C30.2096 12.4743 30.5674 12.8753 31.0322 13.2217C31.4971 13.568 32.0417 13.8301 32.666 14.0078L32.0371 15.0059C31.3216 14.7917 30.6995 14.4658 30.1709 14.0283C29.6423 13.5908 29.2367 13.0736 28.9541 12.4766C28.6807 13.1328 28.2705 13.7048 27.7236 14.1924C27.1813 14.6755 26.5365 15.0332 25.7891 15.2656L25.1875 14.2402ZM27.1562 15.7715H35.209V18.8066H28.4551V19.9961H35.6191V21.0078H27.1973V17.8633H33.9238V16.7695H27.1562V15.7715Z" fill="#222222"/>
<g opacity="0.8">
<path d="M45.5 12.9688L51.5 18.9688L57.5 12.9688" stroke="#222222" stroke-width="1.5" stroke-linecap="round" stroke-linejoin="round"/>
</g>
</svg>
