<svg width="110" height="110" viewBox="0 0 110 110" fill="none" xmlns="http://www.w3.org/2000/svg">
<g id="Frame 10868" filter="url(#filter0_d_8964_53252)">
<path id="Star 1" d="M48.1996 6.58936C49.1829 5.56875 50.8171 5.56875 51.8004 6.58936L58.8681 13.9253C59.7681 14.8595 61.1109 15.2193 62.3573 14.8603L72.1462 12.041C73.508 11.6488 74.9232 12.4659 75.2645 13.8414L77.7173 23.7284C78.0297 24.9873 79.0126 25.9703 80.2716 26.2827L90.1586 28.7355C91.5341 29.0768 92.3512 30.492 91.959 31.8538L89.1397 41.6427C88.7807 42.8891 89.1405 44.2319 90.0747 45.1319L97.4106 52.1996C98.4313 53.1829 98.4313 54.8171 97.4106 55.8004L90.0747 62.8681C89.1405 63.7681 88.7807 65.1109 89.1397 66.3573L91.959 76.1462C92.3512 77.508 91.5341 78.9232 90.1586 79.2645L80.2716 81.7173C79.0126 82.0297 78.0297 83.0126 77.7173 84.2716L75.2645 94.1586C74.9232 95.5341 73.508 96.3512 72.1461 95.959L62.3573 93.1397C61.1109 92.7807 59.7681 93.1405 58.8681 94.0747L51.8004 101.411C50.8171 102.431 49.1829 102.431 48.1996 101.411L41.1319 94.0747C40.2319 93.1405 38.8891 92.7807 37.6427 93.1397L27.8538 95.959C26.492 96.3512 25.0768 95.5341 24.7355 94.1586L22.2827 84.2716C21.9703 83.0126 20.9873 82.0297 19.7284 81.7173L9.84136 79.2645C8.46585 78.9232 7.64876 77.508 8.04099 76.1461L10.8603 66.3573C11.2193 65.1109 10.8595 63.7681 9.92535 62.8681L2.58936 55.8004C1.56875 54.8171 1.56875 53.1829 2.58936 52.1996L9.92535 45.1319C10.8595 44.2319 11.2193 42.8891 10.8603 41.6427L8.04099 31.8538C7.64876 30.492 8.46585 29.0768 9.84137 28.7355L19.7284 26.2827C20.9873 25.9703 21.9703 24.9873 22.2827 23.7284L24.7355 13.8414C25.0768 12.4658 26.492 11.6488 27.8538 12.041L37.6427 14.8603C38.8891 15.2193 40.2319 14.8595 41.1319 13.9253L48.1996 6.58936Z" fill="#DBFC72" stroke="#612FEF"/>
<path id="Vector 356" d="M37 54.8182L45.4375 63L64 45" stroke="#612FEF" stroke-width="7" stroke-linecap="round" stroke-linejoin="round"/>
</g>
<defs>
<filter id="filter0_d_8964_53252" x="-0.9" y="-0.9" width="111.8" height="111.8" filterUnits="userSpaceOnUse" color-interpolation-filters="sRGB">
<feFlood flood-opacity="0" result="BackgroundImageFix"/>
<feColorMatrix in="SourceAlpha" type="matrix" values="0 0 0 0 0 0 0 0 0 0 0 0 0 0 0 0 0 0 127 0" result="hardAlpha"/>
<feOffset dx="5" dy="1"/>
<feGaussianBlur stdDeviation="2.95"/>
<feComposite in2="hardAlpha" operator="out"/>
<feColorMatrix type="matrix" values="0 0 0 0 0 0 0 0 0 0 0 0 0 0 0 0 0 0 0.25 0"/>
<feBlend mode="normal" in2="BackgroundImageFix" result="effect1_dropShadow_8964_53252"/>
<feBlend mode="normal" in="SourceGraphic" in2="effect1_dropShadow_8964_53252" result="shape"/>
</filter>
</defs>
</svg>
