<svg xmlns="http://www.w3.org/2000/svg" width="12" height="12" viewBox="0 0 12 12" fill="none">
  <path d="M7.64177 10.7358C7.34687 11.4977 6.6139 12 5.79688 12C4.97985 12 4.24688 11.4977 3.95198 10.7358L0.455434 1.70155C0.138331 0.882239 0.742889 0 1.62143 0C2.15253 0 2.62567 0.335533 2.80134 0.836741L5.71844 9.15985C5.73012 9.19316 5.76157 9.21547 5.79688 9.21547C5.83218 9.21547 5.86363 9.19316 5.87531 9.15985L8.79241 0.836741C8.96808 0.335533 9.44122 0 9.97232 0C10.8509 0 11.4554 0.882241 11.1383 1.70156L7.64177 10.7358Z" fill="white"/>
</svg>