<svg width="49" height="45" viewBox="0 0 49 45" fill="none" xmlns="http://www.w3.org/2000/svg">
<g opacity="0.4">
<path d="M18.4122 11.5432C18.3501 11.1427 18.3178 10.7323 18.3178 10.3145C18.3178 5.89617 21.9231 2.31445 26.3705 2.31445C30.8178 2.31445 34.4231 5.89617 34.4231 10.3145C34.4231 11.3125 34.2391 12.2679 33.903 13.149C33.8332 13.3319 33.7983 13.4234 33.7825 13.4949C33.7668 13.5656 33.7607 13.6154 33.759 13.6879C33.7573 13.7611 33.7672 13.8416 33.787 14.0028L34.1896 17.273C34.2332 17.627 34.255 17.804 34.1961 17.9327C34.1445 18.0454 34.0529 18.135 33.939 18.184C33.809 18.2399 33.6325 18.214 33.2796 18.1623L30.0943 17.6954C29.928 17.671 29.8448 17.6588 29.7691 17.6592C29.6942 17.6596 29.6423 17.6652 29.569 17.6806C29.4949 17.6962 29.4002 17.7316 29.2109 17.8026C28.3275 18.1334 27.3703 18.3145 26.3705 18.3145C25.9523 18.3145 25.5415 18.2828 25.1405 18.2217M19.9494 22.3145C22.9143 22.3145 25.3179 19.852 25.3179 16.8145C25.3179 13.7769 22.9143 11.3145 19.9494 11.3145C16.9846 11.3145 14.581 13.7769 14.581 16.8145C14.581 17.425 14.6781 18.0124 14.8574 18.5612C14.9332 18.7932 14.9711 18.9092 14.9835 18.9884C14.9965 19.0711 14.9988 19.1176 14.994 19.2012C14.9893 19.2812 14.9693 19.3718 14.9292 19.5528L14.3179 22.3145L17.3127 21.9055C17.4761 21.8831 17.5579 21.872 17.6292 21.8724C17.7044 21.873 17.7443 21.877 17.818 21.8917C17.888 21.9057 17.992 21.9424 18.2001 22.0159C18.7485 22.2094 19.337 22.3145 19.9494 22.3145Z" stroke="black" stroke-width="1.5" stroke-linecap="round" stroke-linejoin="round"/>
<path d="M10.5679 32.5801C10.5643 33.5934 10.4318 34.5244 10.1704 35.373C9.9126 36.2217 9.46322 37.013 8.82227 37.7471C8.18132 38.4775 7.31299 39.1221 6.21729 39.6807L5.64795 38.9072C6.4751 38.4847 7.15902 38.0156 7.69971 37.5C8.24398 36.9844 8.66471 36.4132 8.96191 35.7866L5.84131 36.082L5.68018 35.2012L9.27344 34.9756C9.42025 34.4886 9.51335 33.9658 9.55273 33.4072H6.17432V32.5801H10.5679ZM10.5464 35.416H12.6626V31.6025H13.6724V41.2275H12.6626V36.2539H10.5464V35.416ZM23.9634 37.9404H21.8042V41.2812H20.7837V37.9404H18.3667V41.2812H17.3462V37.9404H15.1548V37.1025H23.9634V37.9404ZM16.2612 32.1074H22.8569V35.8994H16.2612V32.1074ZM21.8364 35.083V32.9238H17.2603V35.083H21.8364ZM32.6646 41.2275H31.644V31.6025H32.6646V41.2275ZM25.2632 32.5371H26.2729V37.8975C27.7983 37.8903 29.2736 37.7435 30.6987 37.457L30.8384 38.3164C30.022 38.4847 29.2235 38.6047 28.4429 38.6763C27.6623 38.7479 26.8709 38.7819 26.0688 38.7783H25.2632V32.5371ZM39.5288 33.2891H35.7798V35.1475H39.1636V35.9639H35.7798V38.123C36.6785 38.1159 37.4538 38.0926 38.1055 38.0532C38.7607 38.0103 39.4285 37.9333 40.1089 37.8223L40.2163 38.6494C39.5002 38.764 38.793 38.8428 38.0947 38.8857C37.3965 38.9251 36.5496 38.9466 35.5542 38.9502H34.77V32.4512H39.5288V33.2891ZM41.1509 31.6025H42.1821V41.2275H41.1509V31.6025Z" fill="black"/>
</g>
</svg>
