<svg width="21" height="19" viewBox="0 0 21 19" fill="none" xmlns="http://www.w3.org/2000/svg">
<g id="Icon">
<path d="M5.415 2.78C5.767 2.31067 5.943 2.076 6.16605 1.90675C6.3636 1.75685 6.58732 1.64499 6.82577 1.57689C7.095 1.5 7.38834 1.5 7.975 1.5H15.575C17.2552 1.5 18.0952 1.5 18.737 1.82698C19.3015 2.1146 19.7604 2.57354 20.048 3.13803C20.375 3.77976 20.375 4.61984 20.375 6.3V12.7C20.375 14.3802 20.375 15.2202 20.048 15.862C19.7604 16.4265 19.3015 16.8854 18.737 17.173C18.0952 17.5 17.2552 17.5 15.575 17.5H7.975C7.38834 17.5 7.095 17.5 6.82577 17.4231C6.58732 17.355 6.3636 17.2432 6.16605 17.0932C5.943 16.924 5.767 16.6893 5.415 16.22L1.095 10.46C0.836806 10.1157 0.707709 9.94361 0.657945 9.75457C0.614018 9.5877 0.614018 9.4123 0.657945 9.24543C0.707709 9.05639 0.836806 8.88426 1.095 8.54L5.415 2.78Z" fill="white"/>
<path d="M15.375 6.5L9.375 12.5M9.375 6.5L15.375 12.5M1.095 10.46L5.415 16.22C5.767 16.6893 5.943 16.924 6.16605 17.0932C6.3636 17.2432 6.58732 17.355 6.82577 17.4231C7.095 17.5 7.38834 17.5 7.975 17.5H15.575C17.2552 17.5 18.0952 17.5 18.737 17.173C19.3015 16.8854 19.7604 16.4265 20.048 15.862C20.375 15.2202 20.375 14.3802 20.375 12.7V6.3C20.375 4.61984 20.375 3.77976 20.048 3.13803C19.7604 2.57354 19.3015 2.1146 18.737 1.82698C18.0952 1.5 17.2552 1.5 15.575 1.5H7.975C7.38834 1.5 7.095 1.5 6.82577 1.57689C6.58732 1.64499 6.3636 1.75685 6.16605 1.90675C5.943 2.076 5.767 2.31067 5.415 2.78L1.095 8.54C0.836806 8.88426 0.707709 9.05639 0.657945 9.24543C0.614018 9.4123 0.614018 9.5877 0.657945 9.75457C0.707709 9.94361 0.836806 10.1157 1.095 10.46Z" stroke="#612FEF" stroke-width="1.2" stroke-linecap="round" stroke-linejoin="round"/>
</g>
</svg>
