<svg width="19" height="17" viewBox="0 0 19 17" fill="none" xmlns="http://www.w3.org/2000/svg">
<path d="M13.875 5.875L8.625 11.125M8.625 5.875L13.875 11.125M1.38 9.34L5.16 14.38C5.468 14.7907 5.622 14.996 5.81717 15.1441C5.99003 15.2753 6.18578 15.3731 6.39442 15.4327C6.63 15.5 6.88667 15.5 7.4 15.5H14.05C15.5201 15.5 16.2552 15.5 16.8167 15.2139C17.3106 14.9622 17.7122 14.5607 17.9639 14.0667C18.25 13.5052 18.25 12.7701 18.25 11.3V5.7C18.25 4.22986 18.25 3.49479 17.9639 2.93327C17.7122 2.43935 17.3106 2.03778 16.8167 1.78611C16.2552 1.5 15.5201 1.5 14.05 1.5H7.4C6.88667 1.5 6.63 1.5 6.39442 1.56728C6.18578 1.62687 5.99003 1.72474 5.81717 1.85591C5.622 2.004 5.468 2.20933 5.16 2.62L1.38 7.66C1.15408 7.96123 1.04112 8.11184 0.997577 8.27725C0.959141 8.42326 0.959141 8.57674 0.997577 8.72275C1.04112 8.88816 1.15408 9.03877 1.38 9.34Z" stroke="black" stroke-width="1.5" stroke-linecap="round" stroke-linejoin="round"/>
</svg>
