<svg xmlns="http://www.w3.org/2000/svg" width="13" height="14" viewBox="0 0 13 14" fill="none">
<path d="M1.83403 3.56955C1.42434 3.11167 1.2195 2.88273 1.21177 2.68816C1.20506 2.51914 1.2777 2.35668 1.40814 2.24898C1.55829 2.125 1.86549 2.125 2.4799 2.125H10.5198C11.1342 2.125 11.4414 2.125 11.5916 2.24898C11.722 2.35668 11.7947 2.51914 11.788 2.68816C11.7802 2.88273 11.5754 3.11167 11.1657 3.56956L8.07482 7.02407C7.99315 7.11534 7.95232 7.16098 7.92321 7.21292C7.89738 7.25898 7.87844 7.30857 7.86696 7.36012C7.85403 7.41824 7.85403 7.47948 7.85403 7.60196V10.4983C7.85403 10.6042 7.85403 10.6572 7.83695 10.703C7.82185 10.7434 7.7973 10.7797 7.76534 10.8087C7.72916 10.8416 7.67999 10.8613 7.58163 10.9006L5.73997 11.6373C5.54088 11.7169 5.44134 11.7567 5.36143 11.7401C5.29155 11.7256 5.23023 11.6841 5.19079 11.6246C5.1457 11.5566 5.1457 11.4494 5.1457 11.235V7.60196C5.1457 7.47948 5.1457 7.41824 5.13276 7.36012C5.12129 7.30857 5.10234 7.25898 5.07652 7.21292C5.04741 7.16098 5.00657 7.11534 4.92491 7.02407L1.83403 3.56955Z" stroke="#612FEF" stroke-width="1.08333" stroke-linecap="round" stroke-linejoin="round"/>
</svg>