<svg width="21" height="21" viewBox="0 0 21 21" fill="none" xmlns="http://www.w3.org/2000/svg">
<path id="Icon" d="M7.83217 7.74967C8.04769 7.13704 8.47306 6.62044 9.03297 6.29138C9.59287 5.96232 10.2512 5.84203 10.8913 5.95183C11.5313 6.06162 12.1119 6.39441 12.5302 6.89124C12.9484 7.38808 13.1773 8.0169 13.1763 8.66634C13.1763 10.4997 10.4263 11.4163 10.4263 11.4163M10.4997 15.083H10.5088M19.6663 10.4997C19.6663 15.5623 15.5623 19.6663 10.4997 19.6663C5.43706 19.6663 1.33301 15.5623 1.33301 10.4997C1.33301 5.43706 5.43706 1.33301 10.4997 1.33301C15.5623 1.33301 19.6663 5.43706 19.6663 10.4997Z" stroke="black" stroke-width="1.1" stroke-linecap="round" stroke-linejoin="round"/>
</svg>
