<svg xmlns="http://www.w3.org/2000/svg" width="57" height="57" viewBox="0 0 57 57" fill="none">
    <path d="M40.375 23.75V19C40.375 12.4416 35.0584 7.125 28.5 7.125C21.9416 7.125 16.625 12.4416 16.625 19V23.75M28.5 34.4375V39.1875M20.9 49.875H36.1C40.0904 49.875 42.0856 49.875 43.6097 49.0984C44.9503 48.4153 46.0403 47.3253 46.7234 45.9847C47.5 44.4606 47.5 42.4654 47.5 38.475V35.15C47.5 31.1596 47.5 29.1644 46.7234 27.6403C46.0403 26.2997 44.9503 25.2097 43.6097 24.5266C42.0856 23.75 40.0904 23.75 36.1 23.75H20.9C16.9096 23.75 14.9144 23.75 13.3903 24.5266C12.0497 25.2097 10.9597 26.2997 10.2766 27.6403C9.5 29.1644 9.5 31.1596 9.5 35.15V38.475C9.5 42.4654 9.5 44.4606 10.2766 45.9847C10.9597 47.3253 12.0497 48.4153 13.3903 49.0984C14.9144 49.875 16.9096 49.875 20.9 49.875Z" stroke="#612FEF" stroke-width="2" stroke-linecap="round" stroke-linejoin="round"/>
</svg>