<svg xmlns="http://www.w3.org/2000/svg" width="43" height="19" viewBox="0 0 43 19" fill="none">
  <path fill-rule="evenodd" clip-rule="evenodd" d="M0.476562 0.5H8.49438V4.50891C8.49438 6.72297 6.69953 8.51782 4.48547 8.51782C2.27141 8.51782 0.476562 6.72297 0.476562 4.50891V0.5ZM15.6703 0.5H11.6614V18.5C16.0895 18.5 19.6792 14.9103 19.6792 10.4822V4.50891C19.6792 2.29485 17.8844 0.5 15.6703 0.5ZM42.049 0.5H34.0311V18.5C38.4593 18.5 42.049 14.9103 42.049 10.4822V0.5ZM26.8552 0.5C24.6411 0.5 22.8463 2.29485 22.8463 4.50891C22.8463 6.72297 24.6411 8.51782 26.8552 8.51782H30.8641V0.5H26.8552Z" fill="#DBFC72"/>
</svg>