<svg width="42" height="18" viewBox="0 0 42 18" fill="none" xmlns="http://www.w3.org/2000/svg">
  <path id="Union" fill-rule="evenodd" clip-rule="evenodd" d="M0 0H8.01782V4.00891C8.01782 6.22297 6.22297 8.01782 4.00891 8.01782C1.79485 8.01782 0 6.22297 0 4.00891V0ZM15.1938 0H11.1849V18C15.613 18 19.2027 14.4103 19.2027 9.98218V4.00891C19.2027 1.79485 17.4078 0 15.1938 0ZM41.5724 0H33.5546V18C37.9827 18 41.5724 14.4103 41.5724 9.98218V0ZM26.3786 0C24.1646 0 22.3697 1.79485 22.3697 4.00891C22.3697 6.22297 24.1646 8.01782 26.3786 8.01782H30.3875V0H26.3786Z" fill="currentColor"/>
</svg>