<svg xmlns="http://www.w3.org/2000/svg" width="22" height="22" viewBox="0 0 22 22" fill="none">
    <path d="M16.836 9.16437L12.836 5.16437M1.33594 20.6644L4.72031 20.2883C5.1338 20.2424 5.34054 20.2194 5.53378 20.1569C5.70523 20.1014 5.86838 20.0229 6.01882 19.9237C6.18839 19.8119 6.33548 19.6648 6.62966 19.3706L19.836 6.16437C20.9405 5.0598 20.9405 3.26894 19.836 2.16436C18.7314 1.0598 16.9405 1.05979 15.836 2.16436L2.62967 15.3706C2.33548 15.6648 2.18839 15.8119 2.07657 15.9815C1.97737 16.1319 1.89895 16.2951 1.84345 16.4665C1.78089 16.6598 1.75792 16.8665 1.71198 17.28L1.33594 20.6644Z" stroke="black" stroke-width="1.2" stroke-linecap="round" stroke-linejoin="round"/>
</svg>