<svg xmlns="http://www.w3.org/2000/svg" width="18" height="17" viewBox="0 0 18 17" fill="none">
  <path d="M1.91406 5.45526C1.91406 4.39832 2.77088 3.5415 3.82782 3.5415C4.37698 3.5415 4.86453 3.1901 5.03819 2.66912L5.10156 2.479C5.13145 2.38935 5.14639 2.34452 5.16238 2.30475C5.36651 1.79697 5.84488 1.45218 6.39116 1.41909C6.43395 1.4165 6.4812 1.4165 6.5757 1.4165H11.4191C11.5136 1.4165 11.5608 1.4165 11.6036 1.41909C12.1499 1.45218 12.6283 1.79697 12.8324 2.30475C12.8484 2.34452 12.8633 2.38935 12.8932 2.479L12.9566 2.66912C13.1303 3.1901 13.6178 3.5415 14.167 3.5415C15.2239 3.5415 16.0807 4.39832 16.0807 5.45526V11.4748C16.0807 12.6649 16.0807 13.26 15.8491 13.7146C15.6454 14.1144 15.3203 14.4395 14.9205 14.6432C14.4659 14.8748 13.8708 14.8748 12.6807 14.8748H5.31406C4.12395 14.8748 3.5289 14.8748 3.07433 14.6432C2.67449 14.4395 2.3494 14.1144 2.14567 13.7146C1.91406 13.26 1.91406 12.6649 1.91406 11.4748V5.45526Z" stroke="black" stroke-linecap="round" stroke-linejoin="round"/>
  <path d="M8.9974 11.6873C10.7578 11.6873 12.1849 10.2602 12.1849 8.49984C12.1849 6.73943 10.7578 5.31234 8.9974 5.31234C7.23699 5.31234 5.8099 6.73943 5.8099 8.49984C5.8099 10.2602 7.23699 11.6873 8.9974 11.6873Z" stroke="black" stroke-linecap="round" stroke-linejoin="round"/>
</svg>