<svg xmlns="http://www.w3.org/2000/svg" width="18" height="19" viewBox="0 0 18 19" fill="none">
  <path d="M8.46101 3.08993C8.63388 2.73972 8.72031 2.56462 8.83764 2.50867C8.93973 2.46 9.05834 2.46 9.16043 2.50867C9.27776 2.56462 9.3642 2.73972 9.53706 3.08993L11.1771 6.4124C11.2281 6.51579 11.2536 6.56748 11.2909 6.60762C11.3239 6.64316 11.3635 6.67195 11.4075 6.6924C11.4572 6.71551 11.5142 6.72384 11.6283 6.74052L15.2968 7.27672C15.6831 7.33318 15.8762 7.36141 15.9656 7.45577C16.0434 7.53786 16.08 7.65066 16.0652 7.76277C16.0481 7.89162 15.9083 8.02782 15.6286 8.30022L12.9751 10.8848C12.8924 10.9653 12.851 11.0056 12.8243 11.0535C12.8007 11.096 12.7856 11.1426 12.7797 11.1908C12.7731 11.2453 12.7829 11.3022 12.8024 11.416L13.4285 15.0665C13.4945 15.4516 13.5275 15.6441 13.4655 15.7583C13.4115 15.8577 13.3155 15.9274 13.2043 15.948C13.0765 15.9717 12.9036 15.8808 12.5579 15.699L9.27831 13.9743C9.17612 13.9206 9.12503 13.8937 9.07121 13.8832C9.02355 13.8738 8.97453 13.8738 8.92687 13.8832C8.87304 13.8937 8.82195 13.9206 8.71977 13.9743L5.44022 15.699C5.09446 15.8808 4.92158 15.9717 4.79375 15.948C4.68253 15.9274 4.58657 15.8577 4.53258 15.7583C4.47052 15.6441 4.50354 15.4516 4.56958 15.0665L5.19569 11.416C5.21521 11.3022 5.22497 11.2453 5.21836 11.1908C5.21252 11.1426 5.19736 11.096 5.17373 11.0535C5.14704 11.0056 5.10568 10.9653 5.02296 10.8848L2.36944 8.30022C2.08977 8.02782 1.94993 7.89162 1.93292 7.76277C1.91811 7.65066 1.95469 7.53786 2.03246 7.45577C2.12185 7.36141 2.315 7.33318 2.70131 7.27672L6.36976 6.74052C6.48384 6.72384 6.54088 6.71551 6.59056 6.6924C6.63455 6.67195 6.67414 6.64316 6.70716 6.60762C6.74445 6.56748 6.76997 6.51579 6.821 6.4124L8.46101 3.08993Z" fill="currentColor" />
</svg>