<svg width="73" height="38" viewBox="0 0 73 38" fill="none" xmlns="http://www.w3.org/2000/svg">
<mask id="path-1-outside-1_1652_14284" maskUnits="userSpaceOnUse" x="0.476562" y="0" width="72" height="38" fill="black">
<rect fill="white" x="0.476562" width="72" height="38"/>
<path d="M0.476562 0H72.4766V36H0.476562V0Z"/>
</mask>
<path d="M0.476562 0H72.4766V36H0.476562V0Z" fill="#612FEF"/>
<path d="M72.4766 34.5H0.476562V37.5H72.4766V34.5Z" fill="#612FEF" mask="url(#path-1-outside-1_1652_14284)"/>
<circle cx="21.9766" cy="18" r="3" fill="#DBFC72"/>
<path d="M39.832 20.9082H38.0957V16.4512H36.0586V15.043H38.0957V11.8301H39.832V20.9082ZM29.2773 18.1055C29.9382 17.9004 30.4919 17.5996 30.9385 17.2031C31.3851 16.8021 31.7178 16.3486 31.9365 15.8428C32.1553 15.3324 32.2669 14.8014 32.2715 14.25V14.0586H29.7695V12.6641H36.5234V14.0586H34.0488V14.2637C34.0443 14.7604 34.1468 15.248 34.3564 15.7266C34.5661 16.2005 34.8851 16.6289 35.3135 17.0117C35.7419 17.39 36.2728 17.6816 36.9062 17.8867L36.0449 19.2676C35.375 19.0488 34.7985 18.7275 34.3154 18.3037C33.8369 17.8753 33.4587 17.374 33.1807 16.7998C32.8936 17.4424 32.4971 17.9984 31.9912 18.4678C31.4854 18.9372 30.877 19.2904 30.166 19.5273L29.2773 18.1055ZM31.5742 20.1152H33.3242V22.6445H40.1328V24.0391H31.5742V20.1152ZM45.3281 15.6035C45.3281 16.6243 45.5264 17.5563 45.9229 18.3994C46.3193 19.238 46.9368 19.8828 47.7754 20.334L46.8184 21.6055C46.276 21.3275 45.8135 20.9515 45.4307 20.4775C45.0479 19.999 44.7425 19.4453 44.5146 18.8164C44.2913 19.5046 43.9883 20.113 43.6055 20.6416C43.2227 21.1657 42.7578 21.5872 42.2109 21.9062L41.2129 20.5938C42.056 20.1061 42.6758 19.4157 43.0723 18.5225C43.4733 17.6292 43.6784 16.6562 43.6875 15.6035V15.3164H41.6777V13.9219H43.6875V12.2402H45.3145V13.9219H47.2832V15.3164H45.3281V15.6035ZM46.5586 16.5332H48.0215V12.0215H49.6621V23.6836H48.0215V17.9551H46.5586V16.5332ZM50.5508 11.8164H52.2051V24.2578H50.5508V11.8164Z" fill="white"/>
</svg>
